<svg width="360" height="360" viewBox="0 0 360 360" fill="none" xmlns="http://www.w3.org/2000/svg">
<path d="M225.258 141.943L134.744 141.943L134.744 131.658C134.744 127.113 138.428 123.429 142.972 123.429L217.029 123.429C221.574 123.429 225.258 127.113 225.258 131.658L225.258 141.943Z" fill="#5E2CED"/>
<circle cx="259.716" cy="165.086" r="8.74286" stroke="#111111" stroke-width="3.08571" stroke-linecap="round"/>
<rect x="76.1133" y="141.943" width="207.771" height="82.2857" rx="8.22857" stroke="#111111" stroke-width="3.08571" stroke-linecap="round"/>
<rect x="122.398" y="189.257" width="115.2" height="22.6286" rx="8.22857" fill="#111111" stroke="#111111" stroke-width="3.08571" stroke-linecap="round"/>
<path d="M100.801 161.485L127.544 161.485" stroke="#111111" stroke-width="3.08571" stroke-linecap="round"/>
<path d="M127.543 200.571H232.604V257.877C232.604 263.152 228.328 267.428 223.053 267.428H137.094C131.819 267.428 127.543 263.152 127.543 257.877V200.571Z" fill="#5E2CED"/>
<path d="M154.285 221.143H176.914" stroke="white" stroke-width="5.14286" stroke-linecap="round" stroke-linejoin="round"/>
<path d="M154.285 237.6H205.714" stroke="white" stroke-width="5.14286" stroke-linecap="round" stroke-linejoin="round"/>
<circle cx="219.442" cy="72.3579" r="8.54424" transform="rotate(150 219.442 72.3579)" stroke="#111111" stroke-width="3.08571"/>
<circle cx="80.4554" cy="116.456" r="5.43724" transform="rotate(150 80.4554 116.456)" fill="#5E2CED"/>
<circle cx="187.363" cy="294.333" r="3.88374" transform="rotate(150 187.363 294.333)" stroke="#111111" stroke-width="3.08571"/>
<circle cx="271.268" cy="249.668" r="2.05714" transform="rotate(150 271.268 249.668)" stroke="#111111" stroke-width="3.08571"/>
<path d="M140.849 78.4017L132.939 64.8005" stroke="#111111" stroke-width="3.08571" stroke-linecap="round"/>
<path d="M286.323 103.251L273.599 109.22" stroke="#5E2CED" stroke-width="3.08571" stroke-linecap="round"/>
<path d="M94.3769 267.055L84.3381 276.891" stroke="#111111" stroke-width="3.08571" stroke-linecap="round"/>
</svg>
