<svg width="25" height="24" viewBox="0 0 25 24" fill="none" xmlns="http://www.w3.org/2000/svg">
<path d="M9.5 7C10.0312 7 10.5 6.5625 10.5 6C10.5 5.46875 10.0312 5 9.5 5H7.5C5.84375 5 4.5 6.34375 4.5 8V16C4.5 17.6562 5.84375 19 7.5 19H9.5C10.0312 19 10.5 18.5625 10.5 18C10.5 17.4688 10.0312 17 9.5 17H7.5C6.9375 17 6.5 16.5625 6.5 16V8C6.5 7.46875 6.9375 7 7.5 7H9.5ZM20.25 12.5625C20.4062 12.4062 20.5 12.2188 20.5 12C20.5 11.8125 20.4062 11.625 20.25 11.4688L15.75 7.21875C15.5312 7 15.2188 6.96875 14.9375 7.0625C14.6562 7.1875 14.5 7.46875 14.5 7.75V10H10.5C9.9375 10 9.5 10.4688 9.5 11V13C9.5 13.5625 9.9375 14 10.5 14H14.5V16.25C14.5 16.5625 14.6562 16.8438 14.9375 16.9375C15.2188 17.0625 15.5312 17 15.75 16.8125L20.25 12.5625Z" fill="#E8272A"/>
</svg>
