<svg width="34" height="28" viewBox="0 0 34 28" fill="none" xmlns="http://www.w3.org/2000/svg">
<path d="M17 0C17.875 0 18.6875 0.5 19.125 1.25L32.625 24.25C33.0625 25.0625 33.0625 26 32.625 26.75C32.1875 27.5625 31.375 28 30.5 28H3.5C2.5625 28 1.75 27.5625 1.3125 26.75C0.875 26 0.875 25.0625 1.3125 24.25L14.8125 1.25C15.25 0.5 16.0625 0 17 0ZM17 8C16.125 8 15.5 8.6875 15.5 9.5V16.5C15.5 17.375 16.125 18 17 18C17.8125 18 18.5 17.375 18.5 16.5V9.5C18.5 8.6875 17.8125 8 17 8ZM19 22C19 20.9375 18.0625 20 17 20C15.875 20 15 20.9375 15 22C15 23.125 15.875 24 17 24C18.0625 24 19 23.125 19 22Z" fill="currentColor"/>
</svg>
