<svg width="320" height="320" viewBox="0 0 320 320" fill="none" xmlns="http://www.w3.org/2000/svg">
<path d="M113.83 229.284L116.115 213.284C43.3382 172.69 63.8486 114.693 83.201 90.7695L98.2867 99.4552C66.7439 141.055 111.544 170.312 127.087 169.398C139.521 168.667 140.496 156.598 139.43 150.655C138.363 152.941 135.681 155.867 133.487 149.284C131.293 142.701 135.011 142.579 137.144 143.341C142.63 138.221 144.915 129.931 145.373 126.427C149.487 125.055 159.178 123.684 165.03 129.17C166.706 127.646 170.15 125.97 170.515 131.455C170.881 136.941 168.534 137.703 167.315 137.398C168.23 142.427 171.247 154.312 176.001 161.627C195.353 159.493 221.258 164.827 221.258 210.084C221.258 255.148 183.163 259.455 170.515 256.712L170.889 254.628M173.715 238.884C181.989 237.208 195.95 225.992 185.601 194.541M173.715 238.884L165.03 226.743C160.915 223.086 156.344 229.028 160.458 232.686C159.696 231.467 155.795 227.748 153.601 229.943C151.407 232.137 155.734 235.581 156.801 236.343C149.852 232.32 148.652 238.07 152.687 241.371C151.011 240 148.572 238.628 147.201 240.457C145.1 243.259 148.939 244.589 150.858 245.486C147.658 244.571 143.544 245.486 144.915 249.143C145.951 251.903 161.927 254.019 170.889 254.628M173.715 238.884L170.889 254.628" stroke="#111111" stroke-width="2.74286" stroke-linecap="round"/>
<path d="M85.0273 91.6848C88.6845 83.761 95.3588 65.5365 100.113 63.3423C104.867 61.148 99.6559 70.3518 96.4559 75.228C100.418 69.4374 109.164 58.2219 112.456 59.6848C115.747 61.1477 107.427 69.2849 103.77 73.8563C107.884 69.1325 116.662 59.6848 118.856 59.6848C121.446 58.6182 123.427 60.3249 110.627 75.6849C113.827 72.9423 120.593 67.9141 122.056 69.742C124.982 71.9363 116.875 79.4944 112.456 82.9991C115.656 82.0849 120.136 83.0906 119.77 87.1134C119.313 92.142 101.027 87.5709 96.4559 98.0849" stroke="#111111" stroke-width="2.74286" stroke-linecap="round"/>
<path d="M155.884 146.541C157.713 148.522 161.553 150.838 162.284 144.255M149.484 138.769C150.551 138.007 152.867 136.484 153.599 136.484M158.17 133.741C159.237 133.131 161.553 132.004 162.284 132.369" stroke="#111111" stroke-width="2.74286" stroke-linecap="round"/>
<path d="M138.515 119.57C123.521 119.936 131.962 135.112 138.058 143.341C142.812 139.318 145.829 131.303 146.743 127.798C154.058 123.043 161.982 126.731 165.029 129.169C167.589 116.369 160.61 111.341 156.801 110.427C144.732 106.77 139.582 114.998 138.515 119.57Z" fill="#111111" stroke="#111111" stroke-width="2.74286" stroke-linecap="round"/>
<path d="M158.629 172.598C167.406 168.576 173.867 163.303 176 161.17C178.743 161.628 181.486 161.17 181.943 161.17C177.189 169.947 168.686 177.932 165.486 180.37L158.629 172.598Z" fill="#111111" stroke="#111111" stroke-width="2.74286" stroke-linecap="round"/>
<path d="M157.715 172.598C148.938 168.575 140.191 165.131 138.058 162.998C137.143 164.369 136.686 165.284 135.772 166.198C140.526 174.975 147.658 177.931 150.858 180.369L157.715 172.598Z" fill="#111111" stroke="#111111" stroke-width="2.74286" stroke-linecap="round"/>
<path d="M55.7695 229.284H158.885M264.227 229.284H218.055M185.598 229.284H167.073" stroke="#111111" stroke-width="2.74286" stroke-linecap="round"/>
<path d="M261.12 166.996L195.488 147.387L183.61 178.809L252.337 207.415L261.12 166.996Z" fill="#5E2CED"/>
<path d="M185.229 172.358L194.786 147.076L164.593 226.742M151.772 260.571L154.717 252.8" stroke="#111111" stroke-width="2.74286" stroke-linecap="round"/>
<path d="M196.995 172.481C197.022 172.278 197.076 171.915 197.156 171.393C197.25 170.863 197.352 170.255 197.459 169.567C197.578 168.883 197.699 168.156 197.821 167.386C197.954 166.62 198.074 165.893 198.182 165.205C198.29 164.518 198.383 163.913 198.463 163.391C198.547 162.858 198.602 162.49 198.629 162.287C198.728 162.094 198.837 161.967 198.957 161.906C199.079 161.833 199.192 161.813 199.293 161.846C199.395 161.878 199.486 161.944 199.566 162.045C199.646 162.145 199.696 162.26 199.716 162.391L198.291 170.412C198.365 170.298 198.51 170.077 198.727 169.748C198.944 169.42 199.191 169.038 199.467 168.603C199.757 168.161 200.063 167.692 200.383 167.197C200.714 166.706 201.023 166.245 201.311 165.814C201.601 165.371 201.855 164.986 202.072 164.657C202.29 164.328 202.435 164.107 202.508 163.994C202.62 163.917 202.743 163.863 202.878 163.832C203.016 163.789 203.143 163.78 203.26 163.804C203.391 163.822 203.503 163.882 203.594 163.986C203.689 164.078 203.75 164.216 203.779 164.4L203.682 172.994L207.356 164.89C207.437 164.791 207.53 164.715 207.634 164.662C207.75 164.611 207.851 164.606 207.938 164.647C208.04 164.679 208.116 164.772 208.166 164.925C208.232 165.07 208.259 165.297 208.248 165.604C208.215 165.669 208.129 165.84 207.99 166.119C207.866 166.391 207.709 166.726 207.519 167.126C207.329 167.526 207.117 167.975 206.883 168.473C206.649 168.97 206.412 169.479 206.171 170C205.93 170.52 205.692 171.029 205.458 171.527C205.224 172.025 205.013 172.474 204.823 172.873C204.644 173.277 204.491 173.62 204.363 173.903C204.239 174.174 204.16 174.342 204.127 174.406C203.99 174.561 203.83 174.653 203.647 174.682C203.475 174.714 203.312 174.699 203.157 174.637C203.01 174.59 202.887 174.508 202.788 174.389C202.701 174.274 202.662 174.143 202.671 173.997L202.785 165.407C202.278 166.291 201.791 167.094 201.324 167.816C200.872 168.53 200.445 169.184 200.043 169.777C199.653 170.374 199.289 170.911 198.95 171.388C198.622 171.868 198.331 172.31 198.077 172.715C197.97 172.817 197.858 172.875 197.742 172.888C197.623 172.911 197.512 172.907 197.41 172.875C197.309 172.842 197.22 172.789 197.144 172.715C197.068 172.641 197.018 172.563 196.995 172.481Z" fill="white"/>
<path d="M208.181 171.221C208.081 171.264 207.93 171.247 207.731 171.171C207.546 171.087 207.38 170.984 207.232 170.862C207.096 170.744 207.017 170.619 206.997 170.488C206.98 170.346 207.093 170.226 207.336 170.13C207.436 170.087 207.535 170.069 207.633 170.075C207.745 170.074 207.85 170.076 207.948 170.083C208.06 170.081 208.154 170.061 208.228 170.023C208.314 169.988 208.383 169.91 208.434 169.79C208.607 169.285 208.813 168.778 209.05 168.269C209.299 167.764 209.592 167.335 209.929 166.982C210.266 166.629 210.66 166.388 211.112 166.259C211.575 166.133 212.109 166.198 212.712 166.453C212.937 166.525 213.174 166.663 213.42 166.866C213.67 167.058 213.895 167.285 214.097 167.549C214.303 167.802 214.462 168.083 214.575 168.392C214.691 168.691 214.726 168.989 214.681 169.285C214.724 169.424 214.634 169.55 214.41 169.666C214.187 169.781 213.888 169.897 213.515 170.014C213.145 170.12 212.734 170.219 212.281 170.31C211.829 170.402 211.391 170.486 210.968 170.563C210.557 170.643 210.192 170.713 209.874 170.773C209.556 170.833 209.349 170.879 209.252 170.91C209.179 171.372 209.104 171.859 209.028 172.369C208.952 172.88 208.922 173.362 208.939 173.816C208.956 174.269 209.028 174.666 209.156 175.006C209.299 175.337 209.539 175.558 209.878 175.666C210.364 175.859 210.811 175.921 211.219 175.852C211.638 175.787 212.013 175.645 212.344 175.427C212.675 175.21 212.964 174.947 213.212 174.641C213.471 174.337 213.684 174.039 213.853 173.744C214.033 173.453 214.169 173.204 214.26 172.997C214.366 172.782 214.434 172.667 214.464 172.651C214.61 172.623 214.751 172.668 214.887 172.787C215.027 172.894 215.065 173.086 215.001 173.364C214.872 173.808 214.615 174.28 214.232 174.78C213.848 175.279 213.399 175.709 212.886 176.067C212.385 176.43 211.838 176.678 211.248 176.813C210.672 176.94 210.122 176.87 209.597 176.603C209.025 176.407 208.62 176.098 208.382 175.673C208.148 175.237 208.002 174.761 207.943 174.244C207.899 173.72 207.913 173.189 207.985 172.652C208.057 172.115 208.123 171.638 208.181 171.221ZM213.783 168.998C213.581 168.386 213.315 167.952 212.986 167.698C212.656 167.443 212.285 167.281 211.872 167.211C211.624 167.169 211.379 167.215 211.137 167.349C210.898 167.472 210.676 167.663 210.469 167.92C210.266 168.166 210.084 168.463 209.923 168.81C209.766 169.145 209.645 169.505 209.56 169.888L213.783 168.998Z" fill="white"/>
<path d="M219.155 164.144C219.238 164.121 219.32 164.097 219.402 164.074C219.499 164.042 219.589 164.034 219.672 164.048C219.758 164.05 219.824 164.078 219.87 164.13C219.926 164.185 219.959 164.277 219.969 164.404L215.603 178.411C215.51 178.506 215.413 178.556 215.312 178.561C215.207 178.577 215.113 178.559 215.03 178.508C214.944 178.468 214.87 178.407 214.809 178.325C214.759 178.247 214.735 178.165 214.738 178.078L219.155 164.144Z" fill="white"/>
<path d="M218.374 174.685C218.555 174.233 218.745 173.777 218.942 173.317C219.138 172.857 219.352 172.422 219.583 172.01C219.818 171.587 220.072 171.202 220.345 170.853C220.618 170.505 220.915 170.22 221.235 169.999C221.566 169.781 221.922 169.64 222.304 169.575C222.696 169.514 223.123 169.563 223.582 169.723C223.898 169.824 224.098 170.037 224.18 170.362C224.267 170.676 224.284 171.03 224.233 171.424C224.193 171.822 224.11 172.219 223.983 172.614C223.868 173.013 223.771 173.336 223.691 173.585C223.5 173.598 223.354 173.551 223.251 173.444C223.16 173.34 223.098 173.202 223.066 173.03C223.049 172.85 223.044 172.65 223.053 172.429C223.061 172.207 223.076 171.988 223.095 171.77C223.127 171.556 223.143 171.349 223.144 171.151C223.157 170.956 223.147 170.791 223.115 170.656C222.941 170.501 222.734 170.466 222.496 170.551C222.257 170.637 222.013 170.795 221.765 171.027C221.52 171.248 221.268 171.528 221.01 171.869C220.763 172.213 220.531 172.568 220.315 172.935C220.102 173.29 219.909 173.639 219.737 173.982C219.565 174.326 219.439 174.621 219.36 174.87C219.263 175.212 219.18 175.59 219.11 176.003C219.043 176.405 219.018 176.796 219.034 177.174C219.05 177.552 219.12 177.898 219.244 178.212C219.371 178.514 219.582 178.749 219.877 178.918C220.306 179.055 220.689 179.103 221.026 179.062C221.378 179.012 221.684 178.911 221.944 178.758C222.22 178.597 222.457 178.399 222.657 178.164C222.856 177.929 223.033 177.687 223.188 177.438C223.346 177.177 223.48 176.934 223.589 176.707C223.714 176.473 223.824 176.285 223.92 176.141C224.239 176.156 224.463 176.234 224.592 176.374C224.732 176.519 224.783 176.653 224.743 176.777C224.577 177.297 224.321 177.787 223.974 178.249C223.631 178.7 223.225 179.074 222.756 179.372C222.299 179.674 221.793 179.873 221.239 179.97C220.686 180.067 220.11 180.02 219.511 179.828C219.003 179.666 218.636 179.374 218.409 178.953C218.186 178.521 218.051 178.048 218.004 177.535C217.967 177.026 217.989 176.51 218.069 175.988C218.16 175.469 218.262 175.035 218.374 174.685Z" fill="white"/>
<path d="M226.403 181.957C225.97 181.756 225.655 181.456 225.459 181.058C225.274 180.662 225.167 180.218 225.138 179.723C225.11 179.228 225.15 178.712 225.26 178.175C225.385 177.63 225.539 177.107 225.724 176.606C226.007 175.837 226.387 175.137 226.863 174.505C227.35 173.877 227.863 173.363 228.401 172.962C228.955 172.554 229.503 172.281 230.045 172.143C230.602 171.998 231.089 172.029 231.508 172.238C231.949 172.454 232.252 172.793 232.415 173.256C232.589 173.722 232.669 174.252 232.654 174.844C232.639 175.437 232.545 176.061 232.373 176.715C232.205 177.358 232.004 177.966 231.771 178.539C231.502 179.187 231.157 179.761 230.735 180.261C230.314 180.761 229.856 181.163 229.361 181.465C228.877 181.771 228.372 181.97 227.844 182.063C227.332 182.148 226.851 182.113 226.403 181.957ZM231.03 173.149C230.672 172.985 230.284 172.991 229.866 173.169C229.463 173.339 229.058 173.614 228.65 173.994C228.257 174.366 227.883 174.819 227.525 175.352C227.172 175.874 226.877 176.408 226.64 176.954C226.465 177.346 226.314 177.759 226.188 178.192C226.062 178.624 225.989 179.03 225.967 179.409C225.957 179.792 226.017 180.128 226.148 180.419C226.294 180.702 226.542 180.9 226.892 181.012C227.171 181.113 227.495 181.111 227.865 181.005C228.246 180.903 228.626 180.726 229.006 180.474C229.389 180.211 229.752 179.891 230.096 179.516C230.452 179.144 230.737 178.737 230.953 178.296C231.187 177.836 231.363 177.344 231.48 176.822C231.612 176.291 231.681 175.784 231.686 175.301C231.703 174.821 231.655 174.388 231.541 174.003C231.443 173.611 231.272 173.326 231.03 173.149Z" fill="white"/>
<path d="M231.522 183.5C231.572 183.267 231.665 182.899 231.801 182.394C231.952 181.883 232.12 181.301 232.303 180.65C232.501 179.992 232.712 179.294 232.935 178.556C233.158 177.819 233.361 177.106 233.544 176.417C233.742 175.721 233.906 175.071 234.037 174.465C234.18 173.864 234.273 173.377 234.317 173.005C234.408 172.723 234.543 172.592 234.723 172.612C234.918 172.625 235.122 172.69 235.333 172.807C235.164 173.687 234.986 174.476 234.8 175.176C234.625 175.879 234.456 176.503 234.294 177.049C234.147 177.587 234.016 178.055 233.901 178.454C233.801 178.845 233.741 179.169 233.722 179.424C234.193 178.417 234.619 177.57 235.001 176.883C235.382 176.196 235.726 175.646 236.032 175.234C236.353 174.814 236.644 174.527 236.904 174.374C237.169 174.209 237.419 174.146 237.656 174.184C237.866 174.227 238.006 174.452 238.075 174.86C238.147 175.256 238.172 175.743 238.149 176.321C238.137 176.902 238.089 177.522 238.003 178.179C237.932 178.828 237.848 179.424 237.749 179.965C238.498 178.947 239.103 178.145 239.564 177.558C240.037 176.975 240.424 176.544 240.724 176.267C241.028 175.978 241.273 175.814 241.46 175.774C241.658 175.738 241.857 175.758 242.057 175.834C242.324 175.932 242.501 176.119 242.587 176.396C242.688 176.664 242.724 177 242.695 177.401C242.67 177.791 242.597 178.235 242.475 178.731C242.369 179.22 242.242 179.733 242.095 180.271C241.959 180.813 241.825 181.367 241.694 181.935C241.577 182.495 241.49 183.04 241.433 183.569C241.375 184.099 241.368 184.607 241.412 185.094C241.459 185.569 241.592 185.991 241.81 186.36C241.643 186.53 241.469 186.668 241.286 186.771C241.108 186.863 240.959 186.841 240.841 186.703C240.582 186.384 240.433 185.938 240.392 185.365C240.366 184.784 240.395 184.146 240.481 183.452C240.566 182.757 240.692 182.051 240.859 181.332C241.03 180.603 241.187 179.937 241.33 179.336C241.472 178.734 241.577 178.232 241.643 177.83C241.721 177.432 241.716 177.213 241.629 177.172C241.316 177.023 240.813 177.428 240.12 178.389C239.438 179.353 238.483 180.803 237.255 182.738C237.152 182.867 237.05 182.952 236.949 182.995C236.852 183.026 236.764 183.029 236.685 183.004C236.606 182.978 236.534 182.93 236.469 182.86C236.408 182.778 236.362 182.689 236.331 182.592C236.447 181.683 236.575 180.815 236.715 179.989C236.866 179.166 236.994 178.435 237.098 177.796C237.203 177.158 237.264 176.636 237.282 176.231C237.31 175.829 237.272 175.599 237.166 175.54C237.072 175.485 236.934 175.566 236.753 175.782C236.587 175.99 236.39 176.294 236.163 176.694C235.939 177.083 235.682 177.555 235.393 178.11C235.118 178.657 234.824 179.247 234.509 179.881C234.194 180.515 233.867 181.169 233.527 181.845C233.19 182.509 232.844 183.163 232.488 183.809C232.414 183.885 232.324 183.931 232.22 183.947C232.111 183.975 232.006 183.972 231.905 183.94C231.814 183.911 231.731 183.859 231.655 183.785C231.579 183.711 231.535 183.616 231.522 183.5Z" fill="white"/>
<path d="M243.906 182.642C243.805 182.685 243.655 182.668 243.456 182.592C243.271 182.508 243.105 182.405 242.957 182.283C242.82 182.165 242.742 182.04 242.722 181.909C242.705 181.767 242.818 181.647 243.06 181.551C243.161 181.508 243.26 181.49 243.358 181.496C243.47 181.495 243.575 181.497 243.673 181.504C243.785 181.502 243.879 181.482 243.953 181.444C244.039 181.409 244.107 181.331 244.158 181.211C244.332 180.706 244.538 180.199 244.775 179.69C245.024 179.185 245.317 178.756 245.653 178.403C245.99 178.05 246.385 177.809 246.837 177.68C247.3 177.554 247.833 177.619 248.436 177.874C248.662 177.946 248.898 178.084 249.144 178.287C249.394 178.479 249.62 178.706 249.822 178.97C250.028 179.223 250.187 179.504 250.299 179.814C250.416 180.112 250.451 180.41 250.406 180.706C250.449 180.845 250.359 180.971 250.135 181.087C249.912 181.202 249.613 181.318 249.24 181.435C248.87 181.541 248.458 181.64 248.006 181.731C247.553 181.823 247.116 181.907 246.693 181.984C246.282 182.064 245.917 182.134 245.599 182.194C245.281 182.254 245.074 182.3 244.976 182.331C244.903 182.793 244.829 183.28 244.753 183.79C244.676 184.301 244.647 184.783 244.664 185.237C244.68 185.69 244.753 186.087 244.881 186.427C245.023 186.758 245.264 186.979 245.603 187.087C246.089 187.28 246.536 187.342 246.944 187.273C247.363 187.208 247.738 187.066 248.069 186.848C248.4 186.631 248.689 186.368 248.937 186.062C249.195 185.758 249.409 185.46 249.578 185.165C249.758 184.874 249.894 184.625 249.985 184.418C250.091 184.203 250.159 184.088 250.189 184.072C250.335 184.044 250.476 184.089 250.612 184.208C250.752 184.315 250.79 184.507 250.726 184.785C250.597 185.229 250.34 185.701 249.956 186.201C249.573 186.701 249.124 187.13 248.611 187.488C248.109 187.851 247.563 188.099 246.973 188.234C246.397 188.361 245.847 188.291 245.322 188.024C244.75 187.828 244.345 187.519 244.107 187.094C243.873 186.658 243.727 186.182 243.668 185.665C243.624 185.141 243.638 184.61 243.71 184.073C243.782 183.536 243.847 183.059 243.906 182.642ZM249.508 180.419C249.306 179.807 249.04 179.373 248.71 179.119C248.381 178.864 248.01 178.702 247.597 178.632C247.349 178.59 247.104 178.636 246.862 178.77C246.623 178.893 246.4 179.084 246.194 179.341C245.991 179.587 245.809 179.884 245.648 180.231C245.491 180.566 245.37 180.926 245.284 181.309L249.508 180.419Z" fill="white"/>
<circle cx="206.031" cy="93.5748" r="7.59488" transform="rotate(-30 206.031 93.5748)" stroke="#111111" stroke-width="2.74286" stroke-linecap="round"/>
<circle cx="52.0985" cy="101.064" r="3.44353" transform="rotate(-30 52.0985 101.064)" fill="#5E2CED"/>
<circle cx="271.688" cy="204.029" r="3.45222" transform="rotate(-30 271.688 204.029)" stroke="#111111" stroke-width="2.74286" stroke-linecap="round"/>
<path d="M44.8011 193.95L57.1557 192.096" stroke="#111111" stroke-width="2.74286" stroke-linecap="round"/>
<path d="M252.343 118.593L262.699 111.605" stroke="#5E2CED" stroke-width="2.74286" stroke-linecap="round"/>
<path d="M157.319 59.9791L158.995 47.599" stroke="#111111" stroke-width="2.74286" stroke-linecap="round"/>
</svg>
